Coordinates
version=1
nRows=27
nColumns=12
inDegrees=yes

Units are S.I. units (second, meters, Newtons, ...)
Angles are in degrees

endheader
time	SC_y	SC_z	SC_x	AC_y	AC_z	AC_x	GH_y	GH_z	GH_yy	EL_x	PS_y
       0.0              -11.96          17.59          20.76          66.61         -9.699         -17.43         -59.14         -8.281          17.48          7.338          47.57
   0.01107              -11.96          17.59          20.76          66.61         -9.697         -17.43         -59.14         -8.269          17.49          7.349          47.58
   0.02215              -11.96          17.59          20.76           66.6         -9.696         -17.43         -59.15         -8.255          17.51          7.361          47.59
   0.03322              -11.96          17.59          20.76           66.6         -9.695         -17.43         -59.15          -8.24          17.52          7.373           47.6
    0.0443              -11.97          17.59          20.76           66.6         -9.694         -17.42         -59.16         -8.225          17.53          7.386          47.61
   0.05537              -11.97          17.59          20.76          66.59         -9.692         -17.42         -59.17         -8.209          17.55          7.401          47.62
   0.06645              -11.97          17.59          20.75          66.59         -9.691         -17.42         -59.17         -8.191          17.56          7.416          47.64
   0.07752              -11.98          17.59          20.75          66.58         -9.689         -17.41         -59.18         -8.172          17.58          7.432          47.65
    0.0886              -11.98          17.59          20.75          66.58         -9.687         -17.41         -59.19         -8.152           17.6          7.449          47.66
   0.09967              -11.99          17.58          20.75          66.57         -9.685         -17.41          -59.2         -8.131          17.62          7.468          47.68
    0.1107              -11.99          17.58          20.75          66.57         -9.683          -17.4         -59.21         -8.107          17.64          7.488           47.7
    0.1218              -11.99          17.58          20.75          66.56         -9.681          -17.4         -59.22         -8.082          17.66          7.509          47.71
    0.1329               -12.0          17.58          20.75          66.55         -9.679          -17.4         -59.23         -8.056          17.68          7.532          47.73
     0.144              -12.01          17.58          20.74          66.55         -9.676         -17.39         -59.24         -8.027          17.71          7.557          47.76
     0.155              -12.01          17.58          20.74          66.54         -9.673         -17.39         -59.26         -7.995          17.74          7.584          47.78
    0.1661              -12.02          17.58          20.74          66.53          -9.67         -17.38         -59.27         -7.961          17.77          7.614           47.8
    0.1772              -12.03          17.58          20.74          66.52         -9.667         -17.38         -59.29         -7.924           17.8          7.645          47.83
    0.1883              -12.03          17.57          20.74          66.51         -9.664         -17.37          -59.3         -7.884          17.84           7.68          47.86
    0.1993              -12.04          17.57          20.73           66.5          -9.66         -17.36         -59.32          -7.84          17.88          7.718          47.89
    0.2104              -12.05          17.57          20.73          66.48         -9.655         -17.35         -59.34         -7.791          17.92          7.759          47.93
    0.2215              -12.06          17.57          20.73          66.47         -9.651         -17.35         -59.37         -7.738          17.97          7.805          47.97
    0.2326              -12.08          17.57          20.72          66.45         -9.646         -17.34         -59.39          -7.68          18.02          7.855          48.01
    0.2436              -12.09          17.56          20.72          66.44          -9.64         -17.33         -59.42         -7.616          18.08          7.911          48.06
    0.2547               -12.1          17.56          20.71          66.42         -9.634         -17.31         -59.45         -7.544          18.14          7.972          48.11
    0.2658              -12.12          17.56          20.71           66.4         -9.627          -17.3         -59.48         -7.465          18.21           8.04          48.17
    0.2769              -12.14          17.55           20.7          66.37         -9.619         -17.29         -59.52         -7.377          18.29          8.116          48.23
    0.2879              -12.16          17.55           20.7          66.35          -9.61         -17.27         -59.56         -7.278          18.38          8.202           48.3
